<svg xmlns="http://www.w3.org/2000/svg" xmlns:xlink="http://www.w3.org/1999/xlink" width="50" zoomAndPan="magnify" viewBox="0 0 37.5 37.499999" height="50" preserveAspectRatio="xMidYMid meet" version="1.0"><defs><clipPath id="00544e17b5"><path d="M 2.488281 3.699219 L 34.3125 3.699219 L 34.3125 33.304688 L 2.488281 33.304688 Z M 2.488281 3.699219 " clip-rule="nonzero"/></clipPath></defs><g clip-path="url(#00544e17b5)"><path fill="#edc243" d="M 8.820312 14.851562 C 8.734375 14.832031 8.640625 14.808594 8.542969 14.78125 C 7.015625 14.375 5.527344 13.890625 3.988281 13.5 C 3.164062 13.289062 2.488281 13.152344 2.542969 12.214844 C 2.570312 11.691406 2.835938 11.59375 3.066406 11.292969 C 3.335938 10.949219 3.332031 10.84375 3.371094 10.40625 C 3.453125 9.535156 3.625 9.027344 4.359375 8.53125 C 4.71875 8.289062 4.84375 8.226562 5.011719 7.832031 C 5.167969 7.472656 5.128906 7.015625 5.351562 6.691406 C 5.761719 6.089844 6.523438 6.246094 7.066406 5.863281 C 7.640625 5.457031 7.796875 4.664062 8.558594 4.515625 C 9.335938 4.359375 9.839844 4.742188 10.605469 4.253906 C 11.382812 3.761719 11.824219 3.710938 12.742188 3.992188 C 13.203125 4.136719 13.574219 4.332031 14.066406 4.257812 C 14.492188 4.191406 14.816406 4 15.246094 4.019531 C 15.953125 4.050781 16.882812 4.164062 17.476562 5.464844 C 17.757812 6.261719 18.777344 5.332031 19.3125 5.800781 C 19.59375 6.042969 19.46875 6.441406 19.585938 6.714844 C 19.789062 7.203125 20.246094 7.386719 20.746094 7.5625 C 21.289062 7.75 21.699219 7.773438 21.984375 8.335938 C 22.261719 8.871094 21.9375 9.234375 21.988281 9.773438 C 22.085938 10.800781 23.570312 10.847656 23.363281 12.066406 C 23.289062 12.515625 22.917969 12.875 22.992188 13.328125 C 23.078125 13.835938 23.695312 14.035156 23.765625 14.539062 C 23.910156 15.605469 22.664062 16.328125 21.878906 16.621094 C 20.308594 17.203125 18.839844 16.917969 17.339844 16.492188 C 16.289062 16.261719 15.234375 15.988281 14.214844 15.832031 C 12.417969 15.550781 10.644531 15.316406 8.867188 14.867188 C 8.851562 14.863281 8.835938 14.855469 8.820312 14.851562 Z M 33.953125 25.265625 C 33.792969 24.878906 33.941406 24.492188 33.710938 24.132812 C 33.414062 23.675781 32.78125 23.746094 32.476562 23.34375 C 32.210938 22.988281 32.34375 22.390625 32.046875 22.023438 C 31.65625 21.539062 30.855469 21.558594 30.457031 21.09375 C 30.070312 20.648438 30.171875 19.929688 29.84375 19.441406 C 29.503906 18.929688 29.046875 18.886719 28.472656 18.960938 C 27.8125 19.050781 27.417969 19.183594 26.894531 18.746094 C 26.605469 18.503906 26.320312 18.238281 25.917969 18.210938 C 24.960938 18.144531 24.789062 19.195312 23.96875 19.339844 C 23.507812 19.417969 23.121094 19.125 22.691406 19 C 22.167969 18.855469 21.6875 18.914062 21.230469 19.222656 C 20.867188 19.46875 20.671875 19.929688 20.289062 20.140625 C 19.878906 20.371094 19.402344 20.289062 18.949219 20.277344 C 17.8125 20.257812 17.296875 21.019531 16.890625 21.933594 C 16.472656 22.878906 15.414062 22.847656 14.832031 23.523438 C 14.363281 24.074219 14.910156 24.925781 14.667969 25.554688 C 14.460938 26.089844 13.757812 26.226562 13.800781 26.894531 C 13.84375 27.507812 14.320312 28.179688 13.992188 28.765625 C 13.722656 29.25 13.097656 29.34375 13.210938 30.050781 C 13.261719 30.382812 13.433594 30.511719 13.597656 30.773438 C 13.769531 31.050781 13.71875 31.195312 13.6875 31.484375 C 13.632812 31.976562 13.621094 32.671875 14.03125 33.039062 C 14.238281 33.226562 14.472656 33.296875 14.738281 33.296875 C 14.988281 33.296875 15.207031 33.261719 15.421875 33.1875 C 15.457031 33.207031 15.484375 33.214844 15.503906 33.210938 C 16.417969 32.976562 16.691406 32.730469 17.402344 32.511719 C 18.390625 32.203125 19.335938 31.78125 20.308594 31.433594 C 21.621094 30.960938 22.933594 30.464844 24.273438 30.089844 C 26.078125 29.582031 27.824219 29.027344 29.648438 28.5625 C 30.324219 28.390625 31.347656 28.195312 32.15625 27.839844 C 32.558594 27.6875 32.910156 27.503906 33.277344 27.226562 C 33.636719 26.953125 33.949219 26.695312 34.128906 26.246094 C 34.308594 25.800781 34.101562 25.625 33.953125 25.265625 Z M 33.953125 25.265625 " fill-opacity="1" fill-rule="nonzero"/></g><path fill="#d97704" d="M 4.652344 11.585938 C 4.296875 11.515625 3.992188 11.335938 3.648438 11.257812 C 3.625 11.070312 3.667969 10.890625 3.71875 10.722656 C 3.984375 10.742188 4.179688 10.945312 4.402344 11.066406 C 4.574219 11.164062 4.992188 11.25 5.121094 11.390625 C 5.441406 11.734375 4.855469 11.625 4.652344 11.585938 Z M 4.941406 8.507812 C 5.203125 8.558594 5.460938 8.773438 5.710938 8.875 C 5.925781 8.960938 6.144531 9.035156 6.371094 9.082031 C 6.4375 8.824219 5.777344 8.261719 5.546875 8.132812 C 5.410156 8.054688 5.199219 7.945312 5.070312 8.078125 C 5.066406 8.082031 4.921875 8.347656 4.925781 8.339844 C 4.898438 8.445312 4.894531 8.527344 4.941406 8.507812 Z M 6.816406 6.378906 C 7.214844 6.421875 7.304688 7.25 7.699219 7.359375 C 7.746094 7.078125 7.554688 6.625 7.433594 6.367188 C 7.367188 6.222656 7.277344 5.992188 7.089844 6.019531 C 6.976562 6.039062 6.738281 6.226562 6.742188 6.355469 C 6.800781 6.394531 6.859375 6.410156 6.816406 6.378906 Z M 10.035156 6.074219 C 10.253906 6.320312 10.253906 5.878906 10.253906 5.71875 C 10.253906 5.453125 10.15625 5.109375 10.246094 4.851562 C 10.15625 4.789062 9.726562 4.800781 9.636719 4.902344 C 9.503906 5.046875 9.742188 5.316406 9.792969 5.453125 C 9.863281 5.628906 9.90625 5.933594 10.035156 6.074219 Z M 13.160156 5.574219 C 13.140625 5.609375 13.136719 5.671875 13.128906 5.710938 C 13.273438 5.769531 13.371094 5.378906 13.410156 5.261719 C 13.460938 5.09375 13.539062 4.882812 13.550781 4.707031 C 13.5625 4.550781 13.597656 4.597656 13.472656 4.519531 C 13.421875 4.484375 13.265625 4.453125 13.210938 4.476562 C 12.882812 4.617188 13.269531 5.320312 13.160156 5.574219 Z M 17.480469 6.484375 C 17.59375 6.34375 17.652344 6.230469 17.550781 6.078125 C 17.496094 5.992188 17.210938 5.792969 17.273438 5.910156 C 17.066406 6.3125 16.828125 6.667969 16.734375 7.113281 C 16.921875 7.203125 17.367188 6.621094 17.480469 6.484375 Z M 19.226562 7.925781 C 19.402344 7.824219 19.722656 7.679688 19.667969 7.425781 C 19.574219 7.382812 19.3125 7.078125 19.289062 7.265625 C 18.992188 7.542969 18.695312 7.953125 18.539062 8.308594 C 18.691406 8.371094 19.085938 8.007812 19.226562 7.925781 Z M 21.417969 10.710938 C 21.539062 10.648438 21.65625 10.582031 21.703125 10.445312 C 21.746094 10.324219 21.734375 10.09375 21.515625 10.105469 C 21.269531 10.140625 21.058594 10.425781 20.875 10.582031 C 20.734375 10.699219 20.484375 10.828125 20.4375 11.023438 C 20.695312 11.121094 21.183594 10.832031 21.417969 10.710938 Z M 21.480469 13.78125 C 21.71875 13.753906 21.90625 13.769531 22.144531 13.820312 C 22.382812 13.871094 22.625 13.878906 22.652344 13.570312 C 22.660156 13.472656 22.507812 12.972656 22.425781 13.132812 C 22.121094 13.269531 21.800781 13.355469 21.492188 13.476562 C 21.1875 13.597656 21.070312 13.824219 21.480469 13.78125 Z M 16.652344 8.085938 C 18.027344 8.914062 18.785156 9.765625 19.371094 11.246094 C 19.65625 11.976562 19.613281 12.683594 19.769531 13.4375 C 19.855469 13.863281 20.066406 15.054688 20.425781 15.214844 C 20.507812 13.90625 20.414062 12.070312 19.964844 10.816406 C 19.5 9.507812 18.113281 8.535156 17.054688 7.800781 C 15.957031 7.039062 14.625 6.457031 13.25 6.410156 C 11.59375 6.355469 9.941406 6.664062 8.570312 7.785156 C 7.054688 9.019531 5.5 10.894531 4.972656 12.90625 C 5.4375 12.871094 5.34375 12.511719 5.546875 12.117188 C 5.777344 11.667969 6.136719 11.21875 6.441406 10.816406 C 7.03125 10.027344 7.480469 8.996094 8.09375 8.289062 C 8.589844 7.714844 9.800781 7.59375 10.492188 7.277344 C 11.078125 7.007812 12.09375 6.601562 12.734375 6.601562 C 13.378906 6.601562 14.027344 7.027344 14.609375 7.207031 C 15.402344 7.449219 15.949219 7.664062 16.652344 8.085938 Z M 9.628906 12.253906 C 9.492188 12.265625 9.402344 12.214844 9.308594 12.332031 C 9.234375 12.429688 9.277344 12.734375 9.261719 12.839844 L 9.304688 12.832031 C 9.390625 12.933594 9.515625 13.039062 9.578125 13.183594 C 9.800781 12.898438 9.53125 12.566406 9.628906 12.253906 Z M 13.78125 11.707031 C 13.714844 11.464844 13.273438 11.675781 13.140625 11.789062 C 13.324219 12.117188 13.734375 12.042969 14.019531 11.902344 C 13.976562 11.800781 13.886719 11.730469 13.78125 11.707031 Z M 16.085938 15.03125 C 15.984375 14.777344 15.5 14.824219 15.644531 15.160156 L 15.597656 15.121094 C 15.640625 15.238281 15.683594 15.355469 15.644531 15.476562 C 15.773438 15.347656 16.203125 15.316406 16.085938 15.03125 Z M 13.820312 30.578125 C 13.835938 30.789062 14.039062 30.992188 14.105469 31.230469 C 14.140625 31.238281 14.183594 31.242188 14.140625 31.230469 C 14.527344 31.082031 15.550781 31.140625 15.710938 30.675781 C 15.285156 30.527344 14.257812 30.421875 13.820312 30.578125 Z M 15.125 28.132812 C 14.582031 27.863281 14.554688 28.234375 14.480469 28.621094 C 14.65625 28.882812 15.914062 28.984375 16.257812 28.863281 C 16.175781 28.632812 15.375 28.253906 15.125 28.132812 Z M 15.050781 25.84375 L 15.0625 25.878906 C 15.390625 25.9375 15.628906 26.210938 15.976562 26.261719 C 15.933594 25.78125 15 24.9375 15.050781 25.84375 Z M 17.453125 23.960938 C 17.21875 23.582031 17.300781 22.960938 17.019531 22.601562 C 16.703125 22.609375 16.480469 22.976562 16.316406 23.183594 L 16.355469 23.175781 C 16.332031 23.261719 17.292969 24.015625 17.453125 23.960938 Z M 19.734375 20.675781 C 19.75 20.664062 19.769531 20.65625 19.785156 20.644531 C 19.789062 20.636719 19.792969 20.628906 19.796875 20.621094 Z M 20.429688 21.824219 C 20.609375 21.683594 20.589844 20.683594 20.492188 20.449219 C 20.28125 20.546875 19.988281 20.539062 19.785156 20.644531 C 19.660156 20.9375 20.300781 21.566406 20.429688 21.824219 Z M 23.796875 21.105469 C 24.101562 21.003906 24.382812 19.847656 24.28125 19.546875 C 24.023438 19.605469 23.882812 19.625 23.671875 19.554688 C 23.679688 19.613281 23.691406 19.671875 23.710938 19.726562 C 23.617188 20.175781 23.660156 20.671875 23.796875 21.105469 Z M 27.085938 19.96875 C 27.21875 19.691406 27.515625 19.125 26.957031 19.445312 C 26.6875 19.628906 26.617188 20.652344 26.65625 20.964844 C 26.898438 20.816406 26.957031 20.234375 27.085938 19.96875 Z M 30.167969 21.570312 C 30.191406 21.390625 30.019531 21.050781 29.890625 20.953125 C 29.582031 21.085938 29.480469 21.535156 29.316406 21.792969 C 29.121094 22.109375 28.882812 22.398438 28.839844 22.773438 C 29.171875 22.582031 29.4375 22.207031 29.761719 21.984375 C 29.945312 21.859375 30.140625 21.820312 30.167969 21.570312 Z M 32.355469 23.691406 C 32.273438 23.558594 31.90625 23.175781 31.796875 23.5 C 31.289062 23.574219 30.703125 24.316406 30.566406 24.773438 C 30.90625 24.714844 31.003906 24.539062 31.289062 24.40625 C 31.554688 24.289062 31.882812 24.300781 32.152344 24.1875 C 32.496094 24.039062 32.515625 23.953125 32.355469 23.691406 Z M 33.617188 25.113281 C 33.503906 25.089844 33.425781 25.121094 33.363281 25.171875 L 33.375 25.207031 C 33.101562 25.175781 32.734375 25.507812 32.519531 25.65625 C 32.234375 25.859375 32.050781 26.089844 32.5625 26.007812 C 32.875 25.960938 33.300781 25.863281 33.589844 25.746094 C 34.089844 25.542969 33.648438 25.472656 33.617188 25.113281 Z M 30.972656 25.886719 C 30.328125 24.964844 29.308594 24.316406 28.707031 23.335938 C 28.398438 22.832031 28.167969 22.566406 27.585938 22.332031 C 27.054688 22.117188 26.640625 21.808594 26.066406 21.671875 C 24.8125 21.363281 23.578125 21.226562 22.273438 21.621094 C 21.65625 21.808594 20.96875 22.003906 20.4375 22.351562 C 19.828125 22.753906 19.261719 23.476562 18.75 24.011719 C 17.902344 24.890625 17.148438 25.941406 17.089844 27.15625 C 17.054688 27.828125 16.96875 28.515625 16.953125 29.183594 C 16.9375 29.898438 17.113281 30.699219 16.855469 31.394531 C 16.800781 31.546875 16.609375 31.726562 16.832031 32.023438 C 17.238281 32.039062 17.242188 31.339844 17.277344 31.066406 C 17.328125 30.65625 17.246094 30.269531 17.316406 29.855469 C 17.398438 29.351562 17.390625 28.867188 17.320312 28.359375 C 17.199219 27.511719 17.375 26.820312 17.609375 26 C 17.738281 25.550781 18.074219 25.273438 18.382812 24.910156 C 18.699219 24.539062 18.996094 24.15625 19.335938 23.800781 C 19.984375 23.117188 20.949219 22.511719 21.796875 22.105469 C 23.300781 21.378906 25.3125 21.617188 26.738281 22.324219 C 27.484375 22.691406 28.113281 23.355469 28.648438 23.96875 C 29.074219 24.464844 29.492188 24.859375 29.96875 25.292969 C 30.25 25.539062 30.488281 25.84375 30.734375 26.128906 C 30.964844 26.398438 31.125 26.914062 31.40625 27.109375 C 31.785156 27.375 31.605469 26.929688 31.488281 26.671875 C 31.351562 26.382812 31.15625 26.152344 30.972656 25.886719 Z M 21.125 29.246094 C 20.972656 29.367188 21.070312 29.667969 21.125 29.839844 C 21.386719 29.773438 21.632812 29.535156 21.644531 29.269531 C 21.660156 28.902344 21.308594 28.78125 21.28125 28.472656 C 21.167969 28.574219 21.132812 29.042969 21.125 29.246094 Z M 26.046875 26.96875 C 25.765625 26.933594 25.160156 27.457031 25.285156 27.785156 C 25.3125 27.859375 25.457031 27.886719 25.503906 27.957031 C 25.5625 28.046875 25.570312 28.195312 25.601562 28.292969 C 25.980469 28.214844 26.140625 28 26.355469 27.695312 C 26.464844 27.542969 26.933594 27.050781 26.878906 26.910156 C 26.585938 26.96875 26.230469 27.160156 26.046875 26.96875 Z M 24.578125 24.609375 C 24.480469 24.722656 24.261719 24.917969 24.242188 25.0625 L 24.277344 25.082031 C 24.609375 25.375 25.148438 24.695312 25.015625 24.414062 C 24.761719 24.359375 24.714844 24.445312 24.578125 24.609375 Z M 29.289062 27.113281 C 29.273438 27.226562 29.304688 27.34375 29.34375 27.457031 L 29.429688 27.4375 C 29.5 27.585938 29.703125 27.703125 29.855469 27.6875 C 29.863281 27.472656 29.527344 26.988281 29.289062 27.113281 Z M 29.289062 27.113281 " fill-opacity="1" fill-rule="nonzero"/></svg>